# xmcd
#
# Track frame offsets: 
#        150
#        12109
#        24904
#        36384
#        48355
#        64090
#        76392
#        93084
#        106922
#        119538
#        139939
#        152442
#        171358
#        186085
#
# Disc length: 2678 seconds
#
# Revision: 0
# Processed by: cddbd v1.5.2PL0 Copyright (c) Steve Scherf et al.
# Submitted via: ExactAudioCopy v0.95b4
#
DISCID=ac0a740e
DTITLE=Peter Pratt - Ever True
DYEAR=1900
DGENRE=Country
TTITLE0=Evertrue Evermore
TTITLE1=Ride on little ringer
TTITLE2=All set and saddled
TTITLE3=He's a good dog
TTITLE4=Where I'm going to go
TTITLE5=Stranger on the shore
TTITLE6=Carve your name in my saddle
TTITLE7=When I first laid eyes on you
TTITLE8=Happy go lucky love
TTITLE9=It's as if he knows
TTITLE10=Loose Talk
TTITLE11=Tractor Pioneers
TTITLE12=Rope around my heart
TTITLE13=Wild Eyed Steer
EXTD=
EXTT0=
EXTT1=
EXTT2=
EXTT3=
EXTT4=
EXTT5=
EXTT6=
EXTT7=
EXTT8=
EXTT9=
EXTT10=
EXTT11=
EXTT12=
EXTT13=
PLAYORDER=
